# xmcd
#
# Track frame offsets:
#	150
#	12240
#	23389
#	33474
#	45908
#	55532
#	66801
#	77066
#	86959
#	96962
#	106073
#	114780
#	124636
#	133064
#	142210
#	154281
#
# Disc length: 2193 seconds
#
# Revision: 1
# Processed by: cddbd v1.4b42PL1 Copyright (c) Steve Scherf et al.
# Submitted via: audiograbber 1.80
#
DISCID=c6088f10
DTITLE=Johnny Cash - Johnny Cash
DYEAR=1900
DGENRE=
TTITLE0=I Walk The Line
TTITLE1=Cry, Cry, Cry
TTITLE2=Ballad Of A Teenage Queen
TTITLE3=Give My Love To Rose
TTITLE4=Down The Street To 301
TTITLE5=Belshaza
TTITLE6=Get Rhythm
TTITLE7=Hey Porter
TTITLE8=Good Bye Little Darlin'
TTITLE9=Blue Train
TTITLE10=I Forgot To Remember To Forget
TTITLE11=I Could Never Be Ashamed Of You
TTITLE12=Guess Things Happen That Way
TTITLE13=Luther's Boogie
TTITLE14=Thanks A Lot
TTITLE15=Straight A's In Love
EXTD=
EXTT0=
EXTT1=
EXTT2=
EXTT3=
EXTT4=
EXTT5=
EXTT6=
EXTT7=
EXTT8=
EXTT9=
EXTT10=
EXTT11=
EXTT12=
EXTT13=
EXTT14=
EXTT15=
PLAYORDER=
